# Blender v3.2.1 OBJ File: 'ведро.blend'
# www.blender.org
mtllib ведро.mtl
o Cylinder
v 0.000000 -1.000000 -1.000000
v -0.000000 1.000000 -1.309813
v 0.707107 -1.000000 -0.707107
v 0.926177 1.000000 -0.926177
v 1.000000 -1.000000 0.000000
v 1.309813 1.000000 0.000000
v 0.707107 -1.000000 0.707107
v 0.926177 1.000000 0.926177
v -0.000000 -1.000000 1.000000
v -0.000000 1.000000 1.309813
v -0.707107 -1.000000 0.707107
v -0.926177 1.000000 0.926178
v -1.000000 -1.000000 -0.000000
v -1.309813 1.000000 -0.000000
v -0.707107 -1.000000 -0.707107
v -0.926178 1.000000 -0.926177
v -0.000000 -0.722109 -1.043047
v 0.737546 -0.722109 -0.737546
v 1.043047 -0.722109 0.000000
v 0.737546 -0.722109 0.737546
v -0.000000 -0.722109 1.043047
v -0.737546 -0.722109 0.737546
v -1.043047 -0.722109 -0.000000
v -0.737546 -0.722109 -0.737546
v -0.000000 0.767141 -1.273741
v 0.900671 0.767141 -0.900671
v 1.273741 0.767141 0.000000
v 0.900671 0.767141 0.900671
v -0.000000 0.767141 1.273741
v -0.900671 0.767141 0.900671
v -1.273741 0.767141 -0.000000
v -0.900671 0.767141 -0.900671
v 0.976896 1.000000 -0.976896
v -0.000000 1.000000 -1.381540
v -0.000000 0.767141 -1.343493
v 1.381540 1.000000 0.000000
v 0.976896 1.000000 0.976896
v -0.000000 1.000000 1.381540
v -0.976896 1.000000 0.976896
v -1.381540 1.000000 -0.000000
v -0.976896 1.000000 -0.976896
v 0.949993 0.767141 -0.949993
v 1.343493 0.767141 0.000000
v 0.949993 0.767141 0.949993
v -0.000000 0.767141 1.343493
v -0.949993 0.767141 0.949993
v -1.343493 0.767141 -0.000000
v -0.949993 0.767141 -0.949993
v 0.000000 -1.000000 -1.066342
v 0.754017 -1.000000 -0.754017
v 0.786476 -0.722109 -0.786476
v 1.066342 -1.000000 0.000000
v 1.112245 -0.722109 0.000000
v 0.754017 -1.000000 0.754017
v 0.786476 -0.722109 0.786476
v -0.000000 -1.000000 1.066342
v -0.000000 -0.722109 1.112245
v -0.754017 -1.000000 0.754018
v -0.786476 -0.722109 0.786476
v -1.066342 -1.000000 -0.000000
v -1.112245 -0.722109 -0.000000
v -0.754018 -1.000000 -0.754017
v -0.786476 -0.722109 -0.786476
v 0.000000 -0.722109 -1.112245
v 0.770644 1.081979 -0.770644
v -0.000000 1.081979 -1.089855
v 1.089855 1.081979 0.000000
v 0.770644 1.081979 0.770644
v -0.000000 1.081979 1.089855
v -0.770644 1.081979 0.770644
v -1.089855 1.081979 -0.000000
v -0.770644 1.081979 -0.770644
v 0.926177 1.081979 -0.926177
v -0.000000 1.081979 -1.309813
v 1.309813 1.081979 0.000000
v 0.926177 1.081979 0.926177
v -0.000000 1.081979 1.309813
v -0.926177 1.081979 0.926178
v -1.309813 1.081979 -0.000000
v -0.926178 1.081979 -0.926177
v 0.623873 -0.426345 -0.623873
v -0.000000 -0.426345 -0.882290
v 0.882290 -0.426345 0.000000
v 0.623873 -0.426345 0.623873
v -0.000000 -0.426345 0.882290
v -0.623873 -0.426345 0.623873
v -0.882290 -0.426345 -0.000000
v -0.623873 -0.426345 -0.623873
vt 0.206887 0.328286
vt 0.095929 0.328286
vt 0.092890 0.320951
vt 0.209925 0.320951
vt 0.285346 0.406746
vt 0.292681 0.403707
vt 0.017677 0.212459
vt 0.098358 0.293140
vt 0.095234 0.300683
vt 0.010134 0.215583
vt 0.017677 0.098358
vt 0.010134 0.095234
vt 0.212459 0.293140
vt 0.293140 0.212459
vt 0.300683 0.215583
vt 0.215583 0.300683
vt 0.285346 0.517704
vt 0.292681 0.520742
vt 0.974447 0.285598
vt 0.979572 0.204916
vt 0.988884 0.204916
vt 0.983759 0.285598
vt 0.206887 0.596163
vt 0.209925 0.603498
vt 0.293140 0.098358
vt 0.212459 0.017677
vt 0.215583 0.010134
vt 0.300683 0.095234
vt 0.538235 0.715735
vt 0.476637 0.777332
vt 0.389525 0.777332
vt 0.327927 0.715735
vt 0.327927 0.628623
vt 0.389525 0.567025
vt 0.476637 0.567025
vt 0.538235 0.628623
vt 0.328228 0.377392
vt 0.328228 0.468254
vt 0.320951 0.471268
vt 0.320951 0.374378
vt 0.386636 0.560049
vt 0.479527 0.560049
vt 0.392477 0.532504
vt 0.389463 0.539780
vt 0.545211 0.718624
vt 0.479527 0.784309
vt 0.483339 0.532504
vt 0.486353 0.539780
vt 0.545211 0.625733
vt 0.386636 0.784309
vt 0.320951 0.718624
vt 0.547588 0.468254
vt 0.554865 0.471268
vt 0.941092 0.411232
vt 0.770185 0.416787
vt 0.773104 0.305867
vt 0.943482 0.320401
vt 0.943482 0.475566
vt 0.773104 0.495350
vt 0.579215 0.485236
vt 0.749917 0.495285
vt 0.744933 0.573744
vt 0.575134 0.549486
vt 0.579215 0.394374
vt 0.749917 0.384326
vt 0.575134 0.330125
vt 0.744933 0.305867
vt 0.620765 0.189504
vt 0.791467 0.199552
vt 0.786482 0.278012
vt 0.616684 0.253753
vt 0.620765 0.098642
vt 0.791467 0.088594
vt 0.616684 0.034393
vt 0.786482 0.010134
vt 0.204608 0.627768
vt 0.231164 0.623767
vt 0.236569 0.708866
vt 0.209865 0.710524
vt 0.236569 0.829215
vt 0.209865 0.827558
vt 0.231164 0.914315
vt 0.204608 0.910314
vt 0.256838 0.627768
vt 0.283393 0.623767
vt 0.288799 0.708866
vt 0.262095 0.710524
vt 0.288799 0.829215
vt 0.262095 0.827558
vt 0.283393 0.914315
vt 0.256838 0.910314
vt 0.954178 0.212353
vt 0.927527 0.215654
vt 0.924361 0.130442
vt 0.951100 0.129488
vt 0.927527 0.010134
vt 0.954178 0.012493
vt 0.098358 0.017677
vt 0.095234 0.010134
vt 0.017469 0.406746
vt 0.010134 0.403707
vt 0.017469 0.517704
vt 0.010134 0.520742
vt 0.095929 0.596163
vt 0.092890 0.603498
vt 0.352865 0.900274
vt 0.320951 0.901434
vt 0.323500 0.804577
vt 0.355308 0.807414
vt 0.355308 0.966045
vt 0.323500 0.970036
vt 0.872221 0.173537
vt 0.904093 0.175536
vt 0.899740 0.244048
vt 0.868048 0.239221
vt 0.872221 0.080645
vt 0.904093 0.078646
vt 0.868048 0.014961
vt 0.899740 0.010134
vt 0.815908 0.173537
vt 0.847780 0.175536
vt 0.843427 0.244048
vt 0.811735 0.239221
vt 0.815908 0.080645
vt 0.847780 0.078646
vt 0.811735 0.014961
vt 0.843427 0.010134
vt 0.392477 0.313143
vt 0.389463 0.305867
vt 0.320951 0.625733
vt 0.483339 0.313143
vt 0.486353 0.305867
vt 0.547588 0.377392
vt 0.554865 0.374378
vt 0.836829 0.969478
vt 0.769608 0.971975
vt 0.795918 0.801855
vt 0.850337 0.799834
vt 0.975428 0.869476
vt 0.980554 0.788795
vt 0.989866 0.788795
vt 0.984740 0.869476
vt 0.980554 0.674694
vt 0.975428 0.594013
vt 0.984740 0.594013
vt 0.989866 0.674694
vt 0.973060 0.420173
vt 0.976061 0.500961
vt 0.966752 0.500716
vt 0.963751 0.419928
vt 0.979572 0.090816
vt 0.988884 0.090816
vt 0.976061 0.306112
vt 0.966752 0.305867
vt 0.974447 0.010134
vt 0.983759 0.010134
vt 0.344081 0.195336
vt 0.411213 0.262469
vt 0.401633 0.285598
vt 0.320951 0.204916
vt 0.506153 0.262469
vt 0.515733 0.285598
vt 0.573286 0.195336
vt 0.596415 0.204916
vt 0.573286 0.100396
vt 0.596415 0.090816
vt 0.506153 0.033264
vt 0.515733 0.010134
vt 0.411213 0.033264
vt 0.401633 0.010134
vt 0.344081 0.100396
vt 0.320951 0.090816
vt 0.823955 0.779565
vt 0.769608 0.725218
vt 0.769608 0.648360
vt 0.823955 0.594013
vt 0.900813 0.594013
vt 0.955160 0.648360
vt 0.955160 0.725218
vt 0.900813 0.779565
vt 0.579398 0.756085
vt 0.579398 0.661145
vt 0.749339 0.670186
vt 0.749339 0.747044
vt 0.575134 0.594013
vt 0.745886 0.615839
vt 0.180075 0.690899
vt 0.180075 0.785839
vt 0.010134 0.776798
vt 0.010134 0.699940
vt 0.931736 0.971975
vt 0.927168 0.801855
vt 0.575134 0.823218
vt 0.745886 0.801391
vt 0.184340 0.623767
vt 0.013587 0.645593
vt 0.184340 0.852972
vt 0.013587 0.831145
vn 0.0000 -1.0000 0.0000
vn 0.0000 1.0000 0.0000
vn 0.9239 0.0000 0.3827
vn -0.3788 -0.1417 -0.9146
vn -0.9146 -0.1417 -0.3788
vn -0.9146 -0.1417 0.3788
vn -0.3788 -0.1417 0.9146
vn 0.3788 -0.1417 0.9146
vn 0.9146 -0.1417 0.3788
vn 0.9146 -0.1417 -0.3788
vn 0.3788 -0.1417 -0.9146
vn 0.3784 -0.1493 -0.9135
vn 0.9135 -0.1493 -0.3784
vn 0.9135 -0.1493 0.3784
vn 0.3784 -0.1493 0.9135
vn -0.3784 -0.1493 0.9135
vn -0.9135 -0.1493 0.3784
vn -0.9135 -0.1493 -0.3784
vn -0.3784 -0.1493 -0.9135
vn -0.3783 -0.1509 -0.9133
vn -0.9133 -0.1509 -0.3783
vn -0.9133 -0.1509 0.3783
vn -0.3783 -0.1509 0.9133
vn 0.3783 -0.1509 0.9133
vn 0.9133 -0.1509 0.3783
vn 0.9133 -0.1509 -0.3783
vn 0.3783 -0.1509 -0.9133
vn -0.9165 0.1261 -0.3796
vn -0.9239 0.0000 0.3827
vn 0.3827 0.0000 0.9239
vn -0.9239 0.0000 -0.3827
vn 0.9239 0.0000 -0.3827
vn -0.3827 0.0000 0.9239
vn -0.3827 0.0000 -0.9239
vn 0.3827 0.0000 -0.9239
vn -0.3796 0.1261 0.9165
vn 0.3796 0.1261 0.9165
vn 0.9165 0.1261 -0.3796
vn -0.3796 0.1261 -0.9165
vn -0.9165 0.1261 0.3796
vn 0.9165 0.1261 0.3796
vn 0.3796 0.1261 -0.9165
usemtl Material.001
s off
f 27/1/1 26/2/1 42/3/1 43/4/1
f 28/5/1 27/1/1 43/4/1 44/6/1
f 2/7/2 4/8/2 33/9/2 34/10/2
f 16/11/2 2/7/2 34/10/2 41/12/2
f 6/13/2 8/14/2 37/15/2 36/16/2
f 29/17/1 28/5/1 44/6/1 45/18/1
f 8/19/3 6/20/3 75/21/3 76/22/3
f 30/23/1 29/17/1 45/18/1 46/24/1
f 10/25/2 12/26/2 39/27/2 38/28/2
f 1/29/1 3/30/1 5/31/1 7/32/1 9/33/1 11/34/1 13/35/1 15/36/1
f 17/37/2 18/38/2 51/39/2 64/40/2
f 13/35/1 11/34/1 58/41/1 60/42/1
f 18/38/2 19/43/2 53/44/2 51/39/2
f 3/30/1 1/29/1 49/45/1 50/46/1
f 19/43/2 20/47/2 55/48/2 53/44/2
f 1/29/1 15/36/1 62/49/1 49/45/1
f 7/32/1 5/31/1 52/50/1 54/51/1
f 20/47/2 21/52/2 57/53/2 55/48/2
f 24/54/4 32/55/4 25/56/4 17/57/4
f 23/58/5 31/59/5 32/55/5 24/54/5
f 22/60/6 30/61/6 31/62/6 23/63/6
f 21/64/7 29/65/7 30/61/7 22/60/7
f 20/66/8 28/67/8 29/65/8 21/64/8
f 19/68/9 27/69/9 28/70/9 20/71/9
f 18/72/10 26/73/10 27/69/10 19/68/10
f 17/74/11 25/75/11 26/73/11 18/72/11
f 35/76/12 34/77/12 33/78/12 42/79/12
f 42/79/13 33/78/13 36/80/13 43/81/13
f 43/81/14 36/80/14 37/82/14 44/83/14
f 44/84/15 37/85/15 38/86/15 45/87/15
f 45/87/16 38/86/16 39/88/16 46/89/16
f 46/89/17 39/88/17 40/90/17 47/91/17
f 47/92/18 40/93/18 41/94/18 48/95/18
f 48/95/19 41/94/19 34/96/19 35/97/19
f 12/26/2 14/98/2 40/99/2 39/27/2
f 26/2/1 25/100/1 35/101/1 42/3/1
f 8/14/2 10/25/2 38/28/2 37/15/2
f 25/100/1 32/102/1 48/103/1 35/101/1
f 32/102/1 31/104/1 47/105/1 48/103/1
f 4/8/2 6/13/2 36/16/2 33/9/2
f 14/98/2 16/11/2 41/12/2 40/99/2
f 31/104/1 30/23/1 46/24/1 47/105/1
f 62/106/20 63/107/20 64/108/20 49/109/20
f 60/110/21 61/111/21 63/107/21 62/106/21
f 58/112/22 59/113/22 61/114/22 60/115/22
f 56/116/23 57/117/23 59/113/23 58/112/23
f 54/118/24 55/119/24 57/117/24 56/116/24
f 52/120/25 53/121/25 55/122/25 54/123/25
f 50/124/26 51/125/26 53/121/26 52/120/26
f 49/126/27 64/127/27 51/125/27 50/124/27
f 24/128/2 17/37/2 64/40/2 63/129/2
f 9/33/1 7/32/1 54/51/1 56/130/1
f 23/131/2 24/128/2 63/129/2 61/132/2
f 5/31/1 3/30/1 50/46/1 52/50/1
f 15/36/1 13/35/1 60/42/1 62/49/1
f 22/133/2 23/131/2 61/132/2 59/134/2
f 21/52/2 22/133/2 59/134/2 57/53/2
f 11/34/1 9/33/1 56/130/1 58/41/1
f 68/135/28 67/136/28 83/137/28 84/138/28
f 14/139/29 12/140/29 78/141/29 79/142/29
f 10/143/30 8/144/30 76/145/30 77/146/30
f 16/147/31 14/148/31 79/149/31 80/150/31
f 6/20/32 4/151/32 73/152/32 75/21/32
f 12/140/33 10/143/33 77/146/33 78/141/33
f 2/153/34 16/147/34 80/150/34 74/154/34
f 4/151/35 2/155/35 74/156/35 73/152/35
f 66/157/2 65/158/2 73/159/2 74/160/2
f 65/158/2 67/161/2 75/162/2 73/159/2
f 67/161/2 68/163/2 76/164/2 75/162/2
f 68/163/2 69/165/2 77/166/2 76/164/2
f 69/165/2 70/167/2 78/168/2 77/166/2
f 70/167/2 71/169/2 79/170/2 78/168/2
f 71/169/2 72/171/2 80/172/2 79/170/2
f 72/171/2 66/157/2 74/160/2 80/172/2
f 81/173/2 82/174/2 88/175/2 87/176/2 86/177/2 85/178/2 84/179/2 83/180/2
f 65/181/36 66/182/36 82/183/36 81/184/36
f 66/182/37 72/185/37 88/186/37 82/183/37
f 71/187/38 70/188/38 86/189/38 87/190/38
f 69/191/39 68/135/39 84/138/39 85/192/39
f 67/193/40 65/181/40 81/184/40 83/194/40
f 72/195/41 71/187/41 87/190/41 88/196/41
f 70/188/42 69/197/42 85/198/42 86/189/42
